<svg xmlns="http://www.w3.org/2000/svg" xmlns:xlink="http://www.w3.org/1999/xlink" viewBox="0 0 388.79 496.71"><defs><linearGradient id="linear-gradient" x1="71.13" y1="309.2" x2="338.64" y2="309.2" gradientUnits="userSpaceOnUse"><stop offset="0" stop-color="#ed1c24"/><stop offset="1" stop-color="#c33"/></linearGradient><linearGradient id="linear-gradient-2" x1="186.05" y1="311.87" x2="306.63" y2="311.87" xlink:href="#linear-gradient"/></defs><g style="isolation:isolate"><g id="Layer_1" data-name="Layer 1"><path d="M306.63 355.38a257.88 257.88 0 01-24 40.94A231.75 231.75 0 01265 417.94c-36 39.25-96.28 77.69-193.91 77.69v-144.4c41.38 0 70.76-11 89.86-33.54 12.1-14.3 20-32.57 25.06-51.67 5.31-20 7.47-40.83 8-59 .69-20.65-.75-37.88-2-46.4a64.42 64.42 0 002.09 7.88l137-45.71c5.17 15.36 22.9 132.37-24.47 232.59z" transform="translate(-71.13 -.96)" fill="url(#linear-gradient)"/><path d="M306.63 355.38a257.88 257.88 0 01-24 40.94A231.75 231.75 0 01265 417.94c-36 39.25-96.28 77.69-193.91 77.69v-144.4c41.38 0 70.76-11 89.86-33.54 12.1-14.3 20-32.57 25.06-51.67 5.31-20 7.47-40.83 8-59 .69-20.65-.75-37.88-2-46.4a64.42 64.42 0 002.09 7.88l137-45.71c5.17 15.36 22.9 132.37-24.47 232.59z" transform="translate(-71.13 -.96)" fill="#f4898a" opacity=".2"/><path d="M306.63 355.38a257.88 257.88 0 01-24 40.94A231.75 231.75 0 01265 417.94c-54.55-39.39-73.65-121.55-79-151.92 5.31-20 7.47-40.83 8-59l4-1.2s26.61 16.56 108.63 149.56z" transform="translate(-71.13 -.96)" style="mix-blend-mode:multiply" fill="url(#linear-gradient-2)" opacity=".2"/><path d="M459.92 351.23v144.4h-5.38c-8.88-.15-17.44-.58-25.7-1.34-1.12-.07-2.24-.18-3.32-.32-94.12-9.43-147.88-57-177.12-97.62-48.06-66.72-57.19-150.55-55.89-208.06h-66.1L268.11 8.07a.11.11 0 000-.07l141.77 180.26h-73c-1 36.61 3.79 94.73 33.14 129.43 19.14 22.56 48.53 33.54 89.9 33.54z" transform="translate(-71.13 -.96)" fill="#ed1c24"/><path d="M354.39 494.72c-94.12-9.42-147.88-57-177.12-97.62-48.06-66.72-57.19-150.55-55.89-208.06h-66.1L196.98 8.85c-1.73 6.54-119.93 454.86 157.41 485.87z" style="mix-blend-mode:multiply" stroke="#f4898a" stroke-miterlimit="10" stroke-width="4" opacity=".3" fill="#f4898a"/><path d="M270.42 19.18L397.23 182H333s-27.42 180.8 120.82 177.37v128.21c-17.9.19-279.94 28.3-183.4-468.4z" transform="translate(-71.13 -.96)" style="mix-blend-mode:screen" opacity=".5" fill="#f4898a"/></g></g></svg>