<svg xmlns="http://www.w3.org/2000/svg" xmlns:xlink="http://www.w3.org/1999/xlink" width="1200" height="1200"><svg xmlns="http://www.w3.org/2000/svg" viewBox="0 0 100 100" transform="rotate(30 159.92 854.08) scale(.69)"><path d="M55.657 33.158H44.343c-2.114 0-3.845 1.516-3.845 3.369 0 1.852 1.73 3.368 3.845 3.368h11.314c2.114 0 3.845-1.517 3.845-3.368 0-1.853-1.731-3.369-3.845-3.369zm0 26.946H44.343c-2.114 0-3.845 1.517-3.845 3.368 0 1.853 1.73 3.369 3.845 3.369h11.314c2.114 0 3.845-1.517 3.845-3.369 0-1.851-1.731-3.368-3.845-3.368zm10.006-13.472H34.337c-2.114 0-3.845 1.516-3.845 3.368s1.73 3.368 3.845 3.368h31.326c2.114 0 3.845-1.516 3.845-3.368s-1.731-3.368-3.845-3.368z"/><path d="M50 5C25.187 5 5 25.188 5 50s20.187 45 45 45 45-20.188 45-45S74.813 5 50 5zm0 84.719c-21.901 0-39.72-17.817-39.72-39.719S28.099 10.281 50 10.281 89.72 28.099 89.72 50 71.901 89.719 50 89.719z"/></svg></svg>