<svg fill="#fa314a" xmlns="http://www.w3.org/2000/svg" viewBox="0 0 30 30" width="480" height="480"><path d="M15 3C8.373 3 3 8.373 3 15s5.373 12 12 12 12-5.373 12-12S21.627 3 15 3zm6.464 9.535c.006.133.009.265.009.397 0 4.068-3.095 8.756-8.756 8.756A8.697 8.697 0 018 20.305c.241.029.486.042.735.042a6.157 6.157 0 003.821-1.318 3.08 3.08 0 01-2.875-2.137 3.072 3.072 0 001.39-.053 3.078 3.078 0 01-2.469-3.017v-.039c.415.231.889.369 1.394.385a3.077 3.077 0 01-.953-4.108 8.737 8.737 0 006.343 3.216 3.078 3.078 0 015.244-2.807 6.185 6.185 0 001.955-.747 3.09 3.09 0 01-1.354 1.703 6.15 6.15 0 001.768-.484 6.204 6.204 0 01-1.535 1.594z"/></svg>