<svg xmlns="http://www.w3.org/2000/svg" xmlns:xlink="http://www.w3.org/1999/xlink" viewBox="0 0 388.79 496.71"><defs><style>.cls-1{isolation:isolate;}.cls-2{fill:url(#linear-gradient);}.cls-3,.cls-5{opacity:0.2;}.cls-3,.cls-5,.cls-7{mix-blend-mode:multiply;}.cls-4,.cls-7,.cls-8{fill:#f4898a;}.cls-5{fill:url(#linear-gradient-2);}.cls-6{fill:#ed1c24;}.cls-7{stroke:#f4898a;stroke-miterlimit:10;stroke-width:4px;opacity:0.3;}.cls-8{opacity:0.5;mix-blend-mode:screen;}</style><linearGradient id="linear-gradient" x1="71.13" y1="309.2" x2="338.64" y2="309.2" gradientUnits="userSpaceOnUse"><stop offset="0" stop-color="#ed1c24"/><stop offset="1" stop-color="#c33"/></linearGradient><linearGradient id="linear-gradient-2" x1="186.05" y1="311.87" x2="306.63" y2="311.87" xlink:href="#linear-gradient"/></defs><g class="cls-1"><g id="Layer_1" data-name="Layer 1"><path class="cls-2" d="M306.63,355.38a257.88,257.88,0,0,1-24,40.94A231.75,231.75,0,0,1,265,417.94c-36,39.25-96.28,77.69-193.91,77.69V351.23c41.38,0,70.76-11,89.86-33.54,12.1-14.3,20-32.57,25.06-51.67,5.31-20,7.47-40.83,8-59,.69-20.65-.75-37.88-2-46.4a64.42,64.42,0,0,0,2.09,7.88l137-45.71C336.27,138.15,354,255.16,306.63,355.38Z" transform="translate(-71.13 -0.96)"/><g class="cls-3"><path class="cls-4" d="M306.63,355.38a257.88,257.88,0,0,1-24,40.94A231.75,231.75,0,0,1,265,417.94c-36,39.25-96.28,77.69-193.91,77.69V351.23c41.38,0,70.76-11,89.86-33.54,12.1-14.3,20-32.57,25.06-51.67,5.31-20,7.47-40.83,8-59,.69-20.65-.75-37.88-2-46.4a64.42,64.42,0,0,0,2.09,7.88l137-45.71C336.27,138.15,354,255.16,306.63,355.38Z" transform="translate(-71.13 -0.96)"/></g><path class="cls-5" d="M306.63,355.38a257.88,257.88,0,0,1-24,40.94A231.75,231.75,0,0,1,265,417.94c-54.55-39.39-73.65-121.55-79-151.92,5.31-20,7.47-40.83,8-59l4-1.2S224.61,222.38,306.63,355.38Z" transform="translate(-71.13 -0.96)"/><path class="cls-6" d="M459.92,351.23v144.4c-1.8,0-3.61,0-5.38,0-8.88-.15-17.44-.58-25.7-1.34-1.12-.07-2.24-.18-3.32-.32-94.12-9.43-147.88-57-177.12-97.62-48.06-66.72-57.19-150.55-55.89-208.06h-66.1L268.11,8.07a.11.11,0,0,0,0-.07L409.88,188.26h-73c-1,36.61,3.79,94.73,33.14,129.43C389.16,340.25,418.55,351.23,459.92,351.23Z" transform="translate(-71.13 -0.96)"/><path class="cls-7" d="M425.52,495.68c-94.12-9.42-147.88-57-177.12-97.62C200.34,331.34,191.21,247.51,192.51,190h-66.1L268.11,9.81C266.38,16.35,148.18,464.67,425.52,495.68Z" transform="translate(-71.13 -0.96)"/><path class="cls-8" d="M270.42,19.18,397.23,182H333s-27.42,180.8,120.82,177.37V487.58C435.92,487.77,173.88,515.88,270.42,19.18Z" transform="translate(-71.13 -0.96)"/></g></g></svg>