<svg xmlns="http://www.w3.org/2000/svg" xmlns:xlink="http://www.w3.org/1999/xlink" width="1200" height="1200" viewBox="0 0 1200 1200"><g transform="translate(600 600) scale(0.69 0.69) rotate(30) translate(-600 -600)" style="fill:#000000"><svg fill="#000000" xmlns="http://www.w3.org/2000/svg" xmlns:xlink="http://www.w3.org/1999/xlink" version="1.1" x="0px" y="0px" viewBox="0 0 100 100" enable-background="new 0 0 100 100" xml:space="preserve"><path fill="#000000" d="M55.657,33.158H44.343c-2.114,0-3.845,1.516-3.845,3.369c0,1.852,1.73,3.368,3.845,3.368h11.314  c2.114,0,3.845-1.517,3.845-3.368C59.502,34.674,57.771,33.158,55.657,33.158z"></path><path fill="#000000" d="M55.657,60.104H44.343c-2.114,0-3.845,1.517-3.845,3.368c0,1.853,1.73,3.369,3.845,3.369h11.314  c2.114,0,3.845-1.517,3.845-3.369C59.502,61.621,57.771,60.104,55.657,60.104z"></path><path fill="#000000" d="M65.663,46.632H34.337c-2.114,0-3.845,1.516-3.845,3.368s1.73,3.368,3.845,3.368h31.326  c2.114,0,3.845-1.516,3.845-3.368S67.777,46.632,65.663,46.632z"></path><path fill="#000000" d="M50,5C25.187,5,5,25.188,5,50s20.187,45,45,45s45-20.188,45-45S74.813,5,50,5z M50,89.719  c-21.901,0-39.72-17.817-39.72-39.719S28.099,10.281,50,10.281S89.72,28.099,89.72,50S71.901,89.719,50,89.719z"></path></svg></g></svg>