<svg version="1.1" id="Layer_1" xmlns="http://www.w3.org/2000/svg" x="0" y="0" viewBox="0 0 64 64" xml:space="preserve"><style>.st0{fill:#fff}</style><switch><g><path class="st0" d="M32 7C18.2 7 7 18.2 7 32s11.2 25 25 25 25-11.2 25-25S45.8 7 32 7z"/><path class="st0" d="M32 58.5C17.4 58.5 5.5 46.6 5.5 32S17.4 5.5 32 5.5 58.5 17.4 58.5 32 46.6 58.5 32 58.5zm0-50C19 8.5 8.5 19 8.5 32S19 55.5 32 55.5 55.5 45 55.5 32 45 8.5 32 8.5z"/><path class="st0" d="M43.3 26H20.8c-.9 0-1.5-.6-1.5-1.5s.6-1.5 1.5-1.5h22.5c.8 0 1.5.6 1.5 1.5s-.7 1.5-1.5 1.5zm0 7.5H20.8c-.9 0-1.5-.7-1.5-1.5s.6-1.5 1.5-1.5h22.5c.8 0 1.5.6 1.5 1.5 0 .8-.7 1.5-1.5 1.5zM43.3 41H20.8c-.9 0-1.5-.7-1.5-1.5s.6-1.5 1.5-1.5h22.5c.8 0 1.5.7 1.5 1.5s-.7 1.5-1.5 1.5z"/></g></switch></svg>