<svg xmlns="http://www.w3.org/2000/svg" viewBox="0 0 32 32"><switch><g><path d="M16 4c-4.1 0-7.7.4-9.9.8-1.8.2-3.2 1.6-3.5 3.4C2.3 9.8 2 12.1 2 15s.3 5.2.6 6.8c.3 1.8 1.8 3.2 3.6 3.5 2.1.3 5.7.7 9.8.7s7.7-.4 9.9-.8c1.8-.3 3.2-1.7 3.6-3.5.3-1.6.6-3.9.6-6.8s-.3-5.2-.6-6.8c-.3-1.8-1.8-3.2-3.5-3.5-2.3-.2-5.9-.6-10-.6zm0 2c3.9 0 7.5.4 9.6.7.9.1 1.7.9 1.9 1.9.3 1.5.5 3.7.5 6.4s-.3 4.9-.5 6.4c-.2 1-.9 1.7-1.9 1.9-2.2.3-5.7.7-9.6.7s-7.5-.4-9.6-.7c-.9-.1-1.7-.9-1.9-1.9-.2-1.5-.5-3.6-.5-6.4 0-2.8.3-4.9.5-6.4.2-1 .9-1.7 1.9-1.8C8.5 6.4 12.1 6 16 6zm-4 4v10l10-5-10-5z" fill="#fff"/></g></switch></svg>